HIERARCHY
ROOT hip
{
	OFFSET 0.000000 0.000000 0.000000
	CHANNELS 6 Xposition Yposition Zposition Zrotation Yrotation Xrotation 
	JOINT lhipjoint
	{
		OFFSET 0.000000 0.000000 0.000000
		CHANNELS 3 Zrotation Yrotation Xrotation
		JOINT lfemur
		{
			OFFSET 1.363060 -1.794630 0.839290
			CHANNELS 3 Zrotation Yrotation Xrotation
			JOINT ltibia
			{
				OFFSET 2.448110 -6.726130 0.000000
				CHANNELS 3 Zrotation Yrotation Xrotation
				JOINT lfoot
				{
					OFFSET 2.562200 -7.039590 0.000000
					CHANNELS 3 Zrotation Yrotation Xrotation
					JOINT ltoes
					{
						OFFSET 0.157640 -0.433110 2.322550
						CHANNELS 3 Zrotation Yrotation Xrotation
						End Site
						{
							OFFSET 0.000000 0.000000 0.000000
						}
					}
				}
			}
		}
	}
	JOINT rhipjoint
	{
		OFFSET 0.000000 0.000000 0.000000
		CHANNELS 3 Zrotation Yrotation Xrotation
		JOINT rfemur
		{
			OFFSET -1.305520 -1.794630 0.839290
			CHANNELS 3 Zrotation Yrotation Xrotation
			JOINT rtibia
			{
				OFFSET -2.542530 -6.985550 0.000000
				CHANNELS 3 Zrotation Yrotation Xrotation
				JOINT rfoot
				{
					OFFSET -2.568260 -7.056230 0.000000
					CHANNELS 3 Zrotation Yrotation Xrotation
					JOINT rtoes
					{
						OFFSET -0.164730 -0.452590 2.363150
						CHANNELS 3 Zrotation Yrotation Xrotation
						End Site
						{
							OFFSET 0.000000 0.000000 0.000000
						}
					}
				}
			}
		}
	}
	JOINT lowerback
	{
		OFFSET 0.000000 0.000000 0.000000
		CHANNELS 3 Zrotation Yrotation Xrotation
		JOINT upperback
		{
			OFFSET 0.028270 2.035590 -0.193380
			CHANNELS 3 Zrotation Yrotation Xrotation
			JOINT thorax
			{
				OFFSET 0.056720 2.048850 -0.042750
				CHANNELS 3 Zrotation Yrotation Xrotation
				JOINT lowerneck
				{
					OFFSET 0.000000 0.000000 0.000000
					CHANNELS 3 Zrotation Yrotation Xrotation
					JOINT upperneck
					{
						OFFSET -0.054170 1.746240 0.172020
						CHANNELS 3 Zrotation Yrotation Xrotation
						JOINT head
						{
							OFFSET 0.104070 1.761360 -0.123970
							CHANNELS 3 Zrotation Yrotation Xrotation
							End Site
							{
								OFFSET 0.000000 0.000000 0.000000
							}
						}
					}
				}
				JOINT lclavicle
				{
					OFFSET 0.000000 0.000000 0.000000
					CHANNELS 3 Zrotation Yrotation Xrotation
					JOINT lhumerus
					{
						OFFSET 3.362410 1.200890 -0.311210
						CHANNELS 3 Zrotation Yrotation Xrotation
						JOINT lradius
						{
							OFFSET 4.983000 -0.000000 -0.000000
							CHANNELS 3 Zrotation Yrotation Xrotation
							JOINT lwrist
							{
								OFFSET 3.483560 -0.000000 -0.000000
								CHANNELS 3 Zrotation Yrotation Xrotation
								JOINT lhand
								{
									OFFSET 0.000000 0.000000 0.000000
									CHANNELS 3 Zrotation Yrotation Xrotation
									JOINT lfingers
									{
										OFFSET 0.715260 -0.000000 -0.000000
										CHANNELS 3 Zrotation Yrotation Xrotation
										End Site
										{
											OFFSET 0.000000 0.000000 0.000000
										}
									}
								}
								JOINT lthumb
								{
									OFFSET 0.000000 0.000000 0.000000
									CHANNELS 3 Zrotation Yrotation Xrotation
									End Site
									{
										OFFSET 0.000000 0.000000 0.000000
									}
								}
							}
						}
					}
				}
				JOINT rclavicle
				{
					OFFSET 0.000000 0.000000 0.000000
					CHANNELS 3 Zrotation Yrotation Xrotation
					JOINT rhumerus
					{
						OFFSET -3.136600 1.374050 -0.404650
						CHANNELS 3 Zrotation Yrotation Xrotation
						JOINT rradius
						{
							OFFSET -5.241900 -0.000000 -0.000000
							CHANNELS 3 Zrotation Yrotation Xrotation
							JOINT rwrist
							{
								OFFSET -3.444170 -0.000000 -0.000000
								CHANNELS 3 Zrotation Yrotation Xrotation
								JOINT rhand
								{
									OFFSET 0.000000 0.000000 0.000000
									CHANNELS 3 Zrotation Yrotation Xrotation
									JOINT rfingers
									{
										OFFSET -0.622530 -0.000000 -0.000000
										CHANNELS 3 Zrotation Yrotation Xrotation
										End Site
										{
											OFFSET 0.000000 0.000000 0.000000
										}
									}
								}
								JOINT rthumb
								{
									OFFSET 0.000000 0.000000 0.000000
									CHANNELS 3 Zrotation Yrotation Xrotation
									End Site
									{
										OFFSET 0.000000 0.000000 0.000000
									}
								}
							}
						}
					}
				}
			}
		}
	}
}
MOTION
Frames: 9
Frame Time: 0.008333
2.642848 18.095110 3.188133 179.982323 9.618974 -167.991803 4.684196 3.057865 0.036926 -17.451225 -13.431282 -34.565965 6.328022 15.106582 47.625174 2.686228 -8.813328 -0.767736 0.448500 -4.296500 -11.912400 -6.594786 -4.755646 -0.623806 23.067652 -3.713467 -26.685332 -5.853135 -12.627779 39.704442 0.871732 31.884705 -7.861933 -1.073200 6.585400 -18.492800 8.217267 0.608102 3.151916 0.774868 0.838174 -2.133969 -3.908575 1.817752 9.876583 -5.165234 -6.606263 -14.408239 4.334018 -8.433133 19.834785 0.554700 -3.760800 4.027500 0.816973 -6.306430 4.088394 -64.593897 -4.460786 45.930994 41.166436 -52.666118 -15.860069 1.347389 2.197873 11.897887 39.126331 -10.215930 -10.514600 -7.125000 0.000000 0.000000 7.345000 12.971500 -5.555700 1.211115 7.638323 4.976751 73.397771 2.094305 31.633026 -22.060197 35.921262 -4.490700 -0.364898 -2.819773 0.597899 -8.465717 8.347038 -1.595400 7.125000 0.000000 0.000000 13.284300 -18.813200 8.522000 
2.627081 18.082438 3.182426 -179.899574 9.864652 -168.026454 4.674854 3.061709 0.040750 -17.394994 -13.421241 -34.181499 6.384823 15.132312 47.795841 2.763313 -9.156945 -1.111094 0.439600 -4.254400 -11.793500 -6.554568 -4.778765 -0.628788 23.079459 -4.418768 -27.026845 -5.857606 -12.684528 39.841164 1.159788 32.765836 -6.825605 -1.019100 6.422400 -18.015000 8.261964 0.637348 2.929242 0.762897 0.829481 -2.148236 -4.050409 1.827462 9.906455 -5.118146 -6.803860 -14.441460 4.548131 -8.796900 20.042753 0.636700 -3.938100 4.189400 0.818943 -6.357302 4.095722 -64.792101 -4.319508 45.598579 41.430808 -52.824169 -16.028671 1.346343 2.203625 11.736775 39.002699 -10.375021 -10.584900 -7.125000 0.000000 0.000000 7.234700 12.802800 -5.496600 1.156443 7.636699 4.949733 73.555653 1.616722 31.091859 -21.604530 35.625698 -4.362951 -0.360671 -2.781665 1.006979 -8.219337 8.272633 -1.535600 7.125000 0.000000 0.000000 13.446100 -18.934100 8.594500 
2.610636 18.069669 3.176622 -179.780759 10.088844 -168.069877 4.667591 3.064986 0.042358 -17.356256 -13.378792 -33.801921 6.435724 15.153047 47.945263 2.840564 -9.505336 -1.429566 0.430000 -4.208300 -11.663300 -6.520818 -4.797386 -0.631521 23.090264 -4.983624 -27.292244 -5.865794 -12.737094 39.975370 1.408473 33.501191 -5.953600 -0.985200 6.317800 -17.709400 8.310399 0.659777 2.725077 0.750703 0.815181 -2.161509 -4.204570 1.834772 9.930219 -5.044128 -7.014515 -14.462323 4.753958 -9.177643 20.248799 0.705800 -4.121700 4.346800 0.822162 -6.406912 4.105184 -65.008379 -4.139554 45.235751 41.719416 -52.998676 -16.215154 1.347872 2.206907 11.629701 38.896707 -10.562999 -10.681700 -7.125000 0.000000 0.000000 7.130800 12.595800 -5.447500 1.103379 7.638512 4.924106 73.741645 1.157330 30.479769 -21.185719 35.354320 -4.249776 -0.343192 -2.753579 1.402954 -7.993552 8.098446 -1.471000 7.125000 0.000000 0.000000 13.591100 -19.141700 8.627900 
2.593418 18.056803 3.171108 -179.666380 10.296218 -168.129408 4.659485 3.067082 0.043367 -17.329489 -13.334139 -33.424254 6.476539 15.165940 48.062772 2.915695 -9.859599 -1.674328 0.396600 -4.043500 -11.199000 -6.489766 -4.813114 -0.636081 23.096747 -5.507869 -27.519624 -5.872773 -12.785605 40.097563 1.657074 34.164734 -5.011181 -0.927600 6.135500 -17.178000 8.350249 0.662940 2.552306 0.741922 0.781138 -2.173518 -4.328900 1.832414 9.949337 -5.032433 -7.211838 -14.485218 4.983234 -9.544660 20.457103 0.801700 -4.299300 4.519800 0.823204 -6.464427 4.116002 -65.268060 -3.954144 44.845323 41.997286 -53.168529 -16.396092 1.349866 2.211183 11.570401 38.781304 -10.740278 -10.767700 -7.125000 0.000000 0.000000 7.023600 12.402200 -5.392900 1.049173 7.633073 4.899195 73.892090 0.719711 29.872212 -20.783458 35.083250 -4.144649 -0.323181 -2.729478 1.683832 -7.789842 7.911032 -1.410100 7.125000 0.000000 0.000000 13.724400 -19.357700 8.649400 
2.575232 18.044712 3.165208 -179.493869 10.478439 -168.226296 4.652662 3.067406 0.043791 -17.246537 -13.279927 -33.033335 6.507487 15.171120 48.149308 2.987139 -10.217786 -1.828324 0.357500 -3.841500 -10.631100 -6.470519 -4.826816 -0.649962 23.171199 -5.951591 -27.620604 -5.879168 -12.820737 40.193620 1.861327 34.704991 -4.231443 -0.884500 5.995100 -16.770100 8.467228 0.650280 2.447042 0.735815 0.732563 -2.181274 -4.491792 1.830112 9.967705 -4.967272 -7.410358 -14.527617 5.178937 -9.902949 20.661903 0.867600 -4.469500 4.693900 0.825090 -6.511360 4.125317 -65.506955 -3.794063 44.478029 42.280629 -53.332981 -16.577357 1.351979 2.214513 11.480860 38.646818 -10.936004 -10.856500 -7.125000 0.000000 0.000000 6.900300 12.193800 -5.326900 1.000182 7.635534 4.876698 74.043884 0.314707 29.224676 -20.389029 34.818137 -4.047549 -0.301255 -2.712242 1.871807 -7.616338 7.710326 -1.354800 7.125000 0.000000 0.000000 13.839300 -19.578700 8.655700 
2.556466 18.033878 3.158823 -179.319779 10.653241 -168.346994 4.645082 3.065631 0.041624 -17.162014 -13.243514 -32.622201 6.525105 15.165449 48.193304 3.057421 -10.596726 -1.901180 0.290500 -3.466100 -9.579100 -6.459452 -4.835619 -0.671011 23.242733 -6.311137 -27.628870 -5.884381 -12.847307 40.269674 2.037601 35.126020 -3.475811 -0.818600 5.773300 -16.128100 8.568291 0.628556 2.365414 0.734899 0.679088 -2.180277 -4.602661 1.826139 10.021838 -4.923605 -7.595520 -14.584701 5.450234 -10.269606 21.124003 0.858500 -4.628100 4.484200 0.830364 -6.549627 4.137055 -65.782235 -3.713912 44.139110 42.466057 -53.454714 -16.702554 1.355787 2.215030 11.425830 38.578800 -11.155847 -10.987800 -7.125000 0.000000 0.000000 6.816000 11.941100 -5.296700 0.962016 7.621425 4.858680 74.151879 -0.043882 28.544974 -20.004891 34.545603 -3.956188 -0.283112 -2.690246 1.998504 -7.439708 7.553974 -1.303700 7.125000 0.000000 0.000000 13.959100 -19.760800 8.676400 
2.537216 18.023334 3.151762 -179.102358 10.782522 -168.496765 4.634591 3.063190 0.040623 -17.033375 -13.219452 -32.173564 6.531955 15.150658 48.202241 3.127852 -11.003902 -1.901624 0.222100 -3.033400 -8.371700 -6.461002 -4.842436 -0.703017 23.368885 -6.632581 -27.529976 -5.888632 -12.861998 40.323846 2.178332 35.452492 -2.820916 -0.761800 5.574100 -15.553500 8.689323 0.573576 2.325958 0.746929 0.587297 -2.178067 -4.635982 1.800548 10.074725 -4.952329 -7.775078 -14.652837 5.633477 -10.587660 21.326248 0.921800 -4.778500 4.634200 0.843944 -6.584999 4.147601 -66.118913 -3.665290 43.818221 42.595315 -53.553262 -16.791874 1.358644 2.219429 11.412575 38.521445 -11.329057 -11.093700 -7.125000 0.000000 0.000000 6.747800 11.736400 -5.271800 0.931793 7.607103 4.844869 74.192547 -0.373848 27.827616 -19.615632 34.243492 -3.867836 -0.272296 -2.664297 2.146441 -7.301083 7.442128 -1.264300 7.125000 0.000000 0.000000 14.054600 -19.901200 8.693800 
2.516321 18.013177 3.145184 -178.871243 10.900077 -168.663848 4.625144 3.059636 0.036420 -16.902417 -13.194359 -31.697828 6.527098 15.125097 48.169002 3.192489 -11.392402 -1.879661 0.161400 -2.588700 -7.135700 -6.473149 -4.846814 -0.732786 23.504701 -6.790223 -27.341569 -5.897191 -12.870120 40.373487 2.251980 35.621224 -2.419502 -0.722100 5.430000 -15.139100 8.830770 0.513211 2.322446 0.761971 0.493880 -2.171922 -4.644583 1.776963 10.142161 -5.011989 -7.967826 -14.760212 5.801536 -10.914532 21.540599 0.981400 -4.933800 4.805700 0.856854 -6.614594 4.153452 -66.447348 -3.723168 43.599348 42.626980 -53.597837 -16.819659 1.357843 2.225517 11.351182 38.545451 -11.441050 -11.190300 -7.125000 0.000000 0.000000 6.743400 11.584400 -5.289600 0.910759 7.588004 4.834133 74.175259 -0.698431 27.145299 -19.286486 33.971711 -3.796983 -0.254283 -2.644836 2.172326 -7.188558 7.281023 -1.225200 7.125000 0.000000 0.000000 14.134000 -20.082800 8.686500 
2.494556 18.004084 3.139960 -178.644686 11.037435 -168.861130 4.618519 3.055149 0.028848 -16.794541 -13.158886 -31.188506 6.514553 15.090183 48.105266 3.242702 -11.703868 -1.852380 0.113500 -2.172400 -5.982300 -6.493778 -4.846989 -0.759334 23.625848 -6.765462 -27.051267 -5.910292 -12.872133 40.419923 2.250189 35.616168 -2.311176 -0.699800 5.347200 -14.901400 8.963045 0.449070 2.384245 0.774442 0.405282 -2.162899 -4.664438 1.757286 10.184192 -5.070844 -8.146697 -14.812933 5.979755 -11.230241 21.711603 1.048000 -5.084500 4.945400 0.865645 -6.650147 4.163139 -66.735497 -3.804038 43.416926 42.617744 -53.613983 -16.820635 1.357330 2.229156 11.394949 38.586999 -11.496697 -11.253700 -7.125000 0.000000 0.000000 6.762200 11.497900 -5.316700 0.892417 7.571081 4.828957 74.169070 -1.033777 26.463459 -19.015864 33.745537 -3.743098 -0.241232 -2.627440 2.195244 -7.089901 7.168184 -1.194300 7.125000 0.000000 0.000000 14.203800 -20.214200 8.688700 
